<?xml version="1.0" encoding="UTF-8" standalone="no"?>
<!DOCTYPE svg PUBLIC "-//W3C//DTD SVG 1.1//EN"
 "http://www.w3.org/Graphics/SVG/1.1/DTD/svg11.dtd">
<!-- Generated by graphviz version 2.43.0 (0)
 -->
<!-- Title: SEG Pages: 1 -->
<svg width="1711pt" height="1595pt"
 viewBox="0.00 0.00 1711.00 1595.32" xmlns="http://www.w3.org/2000/svg" xmlns:xlink="http://www.w3.org/1999/xlink">
<g id="graph0" class="graph" transform="scale(1 1) rotate(0) translate(4 1591.32)">
<title>SEG</title>
<polygon fill="white" stroke="transparent" points="-4,4 -4,-1591.32 1707,-1591.32 1707,4 -4,4"/>
<text text-anchor="middle" x="851.5" y="-1572.12" font-family="Times,serif" font-size="14.00">Consumer graph &#45; C: rely on both, p_mem discharged once</text>
<g id="clust1" class="cluster">
<title>cluster_legend</title>
<path fill="white" stroke="#adb5bd" d="M1464,-8C1464,-8 1683,-8 1683,-8 1689,-8 1695,-14 1695,-20 1695,-20 1695,-1544.32 1695,-1544.32 1695,-1550.32 1689,-1556.32 1683,-1556.32 1683,-1556.32 1464,-1556.32 1464,-1556.32 1458,-1556.32 1452,-1550.32 1452,-1544.32 1452,-1544.32 1452,-20 1452,-20 1452,-14 1458,-8 1464,-8"/>
<text text-anchor="middle" x="1573.5" y="-15.2" font-family="Times,serif" font-size="11.00">legend</text>
</g>
<g id="clust2" class="cluster">
<title>cluster_edges</title>
<path fill="white" stroke="#ced4da" d="M1604,-36C1604,-36 1675,-36 1675,-36 1681,-36 1687,-42 1687,-48 1687,-48 1687,-1536.32 1687,-1536.32 1687,-1542.32 1681,-1548.32 1675,-1548.32 1675,-1548.32 1604,-1548.32 1604,-1548.32 1598,-1548.32 1592,-1542.32 1592,-1536.32 1592,-1536.32 1592,-48 1592,-48 1592,-42 1598,-36 1604,-36"/>
<text text-anchor="middle" x="1639.5" y="-43" font-family="Times,serif" font-size="10.00">edge types</text>
</g>
<!-- man_up -->
<g id="node1" class="node">
<title>man_up</title>
<polygon fill="#ffd6a5" stroke="#495057" points="538.5,-345.72 535.5,-349.72 514.5,-349.72 511.5,-345.72 475.5,-345.72 475.5,-309.72 538.5,-309.72 538.5,-345.72"/>
<text text-anchor="start" x="483.5" y="-329.42" font-family="Helvetica,sans-Serif" font-weight="bold" font-size="11.00">man_up</text>
<text text-anchor="start" x="488.5" y="-320.82" font-family="Helvetica,sans-Serif" font-size="8.00" fill="#555555">manifest</text>
</g>
<!-- d_impl -->
<g id="node2" class="node">
<title>d_impl</title>
<polygon fill="#e6dcf5" stroke="#495057" points="141.5,-263.72 60.5,-263.72 60.5,-259.72 56.5,-259.72 56.5,-255.72 60.5,-255.72 60.5,-235.72 56.5,-235.72 56.5,-231.72 60.5,-231.72 60.5,-227.72 141.5,-227.72 141.5,-263.72"/>
<polyline fill="none" stroke="#495057" points="60.5,-259.72 64.5,-259.72 64.5,-255.72 60.5,-255.72 "/>
<polyline fill="none" stroke="#495057" points="60.5,-235.72 64.5,-235.72 64.5,-231.72 60.5,-231.72 "/>
<text text-anchor="start" x="81" y="-247.42" font-family="Helvetica,sans-Serif" font-weight="bold" font-size="11.00">d_impl</text>
<text text-anchor="start" x="68.5" y="-238.82" font-family="Helvetica,sans-Serif" font-size="8.00" fill="#555555">implementation</text>
</g>
<!-- d_impl&#45;&gt;man_up -->
<g id="edge1" class="edge">
<title>d_impl&#45;&gt;man_up</title>
<path fill="none" stroke="#868e96" stroke-dasharray="5,2" d="M123.69,-263.91C137.94,-273.77 157.14,-285.41 176,-291.72 228.6,-309.32 388.44,-320.21 465.11,-324.55"/>
<polygon fill="#868e96" stroke="#868e96" points="465.18,-328.06 475.36,-325.12 465.57,-321.07 465.18,-328.06"/>
<text text-anchor="middle" x="186.5" y="-284.52" font-family="Helvetica,sans-Serif" font-size="9.00" fill="#868e96">uses</text>
</g>
<!-- d_sys -->
<g id="node3" class="node">
<title>d_sys</title>
<polygon fill="#b7e4c7" stroke="#495057" points="1210.5,-345.72 1143.5,-345.72 1143.5,-309.72 1210.5,-309.72 1210.5,-345.72"/>
<text text-anchor="start" x="1160" y="-333.92" font-family="Helvetica,sans-Serif" font-weight="bold" font-size="11.00">d_sys</text>
<text text-anchor="start" x="1151.5" y="-325.32" font-family="Helvetica,sans-Serif" font-size="8.00" fill="#555555">requirement</text>
<text text-anchor="start" x="1154" y="-316.52" font-family="Helvetica,sans-Serif" font-size="9.00">[satisfied]</text>
</g>
<!-- g_p_sys -->
<g id="node4" class="node">
<title>g_p_sys</title>
<polygon fill="#cdb4db" stroke="#495057" points="420.42,-146.1 420.42,-163.34 392.06,-175.52 351.94,-175.52 323.58,-163.34 323.58,-146.1 351.94,-133.92 392.06,-133.92 420.42,-146.1"/>
<polygon fill="none" stroke="#495057" points="424.44,-143.45 424.44,-165.99 392.88,-179.55 351.12,-179.55 319.56,-165.99 319.56,-143.45 351.12,-129.89 392.88,-129.89 424.44,-143.45"/>
<text text-anchor="start" x="348.5" y="-156.42" font-family="Helvetica,sans-Serif" font-weight="bold" font-size="11.00">g_p_sys</text>
<text text-anchor="start" x="350.5" y="-147.82" font-family="Helvetica,sans-Serif" font-size="8.00" fill="#555555">guarantee</text>
</g>
<!-- g_p_sys&#45;&gt;man_up -->
<g id="edge24" class="edge">
<title>g_p_sys&#45;&gt;man_up</title>
<path fill="none" stroke="#adb5bd" stroke-dasharray="1,5" d="M369.12,-179.43C367.54,-202.93 368.67,-238.92 386,-263.72 404.79,-290.61 438.66,-306.84 465.8,-316.08"/>
<polygon fill="#adb5bd" stroke="#adb5bd" points="464.86,-319.45 475.45,-319.17 466.99,-312.79 464.86,-319.45"/>
<text text-anchor="middle" x="422.5" y="-243.82" font-family="Helvetica,sans-Serif" font-size="8.00" fill="#868e96">referenced_under</text>
</g>
<!-- d_req_0 -->
<g id="node5" class="node">
<title>d_req_0</title>
<polygon fill="#b7e4c7" stroke="#495057" points="630.5,-263.72 563.5,-263.72 563.5,-227.72 630.5,-227.72 630.5,-263.72"/>
<text text-anchor="start" x="574" y="-251.92" font-family="Helvetica,sans-Serif" font-weight="bold" font-size="11.00">d_req_0</text>
<text text-anchor="start" x="571.5" y="-243.32" font-family="Helvetica,sans-Serif" font-size="8.00" fill="#555555">requirement</text>
<text text-anchor="start" x="574" y="-234.52" font-family="Helvetica,sans-Serif" font-size="9.00">[satisfied]</text>
</g>
<!-- g_p_sys&#45;&gt;d_req_0 -->
<g id="edge3" class="edge">
<title>g_p_sys&#45;&gt;d_req_0</title>
<path fill="none" stroke="#9c36b5" stroke-width="2.2" d="M408.58,-172.99C416.5,-176.26 424.93,-179.38 433,-181.72 480.57,-195.53 497.94,-179.14 543,-199.72 554.05,-204.77 564.67,-212.69 573.52,-220.49"/>
<polygon fill="#9c36b5" stroke="#9c36b5" stroke-width="2.2" points="571.41,-223.3 581.12,-227.54 576.17,-218.17 571.41,-223.3"/>
<text text-anchor="middle" x="575" y="-202.52" font-family="Helvetica,sans-Serif" font-size="9.00" fill="#9c36b5">covers</text>
</g>
<!-- p_entropy -->
<g id="node6" class="node">
<title>p_entropy</title>
<polygon fill="#b7e4c7" stroke="#495057" points="545.5,-263.72 468.5,-263.72 468.5,-227.72 545.5,-227.72 545.5,-263.72"/>
<text text-anchor="start" x="476.5" y="-251.92" font-family="Helvetica,sans-Serif" font-weight="bold" font-size="11.00">p_entropy</text>
<text text-anchor="start" x="481.5" y="-243.32" font-family="Helvetica,sans-Serif" font-size="8.00" fill="#555555">requirement</text>
<text text-anchor="start" x="484" y="-234.52" font-family="Helvetica,sans-Serif" font-size="9.00">[satisfied]</text>
</g>
<!-- g_p_sys&#45;&gt;p_entropy -->
<g id="edge4" class="edge">
<title>g_p_sys&#45;&gt;p_entropy</title>
<path fill="none" stroke="#e8590c" stroke-width="2.2" d="M402.3,-175.69C423.07,-189.39 450.67,-207.59 472.32,-221.86"/>
<polygon fill="#e8590c" stroke="#e8590c" stroke-width="2.2" points="470.63,-224.93 480.9,-227.51 474.48,-219.09 470.63,-224.93"/>
<text text-anchor="middle" x="472" y="-202.52" font-family="Helvetica,sans-Serif" font-size="9.00" fill="#e8590c">assumes</text>
</g>
<!-- p_hal -->
<g id="node7" class="node">
<title>p_hal</title>
<polygon fill="#b7e4c7" stroke="#495057" points="322.5,-263.72 255.5,-263.72 255.5,-227.72 322.5,-227.72 322.5,-263.72"/>
<text text-anchor="start" x="273" y="-251.92" font-family="Helvetica,sans-Serif" font-weight="bold" font-size="11.00">p_hal</text>
<text text-anchor="start" x="263.5" y="-243.32" font-family="Helvetica,sans-Serif" font-size="8.00" fill="#555555">requirement</text>
<text text-anchor="start" x="266" y="-234.52" font-family="Helvetica,sans-Serif" font-size="9.00">[satisfied]</text>
</g>
<!-- g_p_sys&#45;&gt;p_hal -->
<g id="edge5" class="edge">
<title>g_p_sys&#45;&gt;p_hal</title>
<path fill="none" stroke="#e8590c" stroke-width="2.2" d="M345.95,-177.44C338.27,-184.28 330.04,-192.06 323,-199.72 317.41,-205.8 311.81,-212.77 306.82,-219.37"/>
<polygon fill="#e8590c" stroke="#e8590c" stroke-width="2.2" points="303.98,-217.31 300.86,-227.44 309.61,-221.47 303.98,-217.31"/>
<text text-anchor="middle" x="343" y="-202.52" font-family="Helvetica,sans-Serif" font-size="9.00" fill="#e8590c">assumes</text>
</g>
<!-- p_mem -->
<g id="node8" class="node">
<title>p_mem</title>
<polygon fill="#b7e4c7" stroke="#495057" points="715.5,-263.72 648.5,-263.72 648.5,-227.72 715.5,-227.72 715.5,-263.72"/>
<text text-anchor="start" x="660.5" y="-251.92" font-family="Helvetica,sans-Serif" font-weight="bold" font-size="11.00">p_mem</text>
<text text-anchor="start" x="656.5" y="-243.32" font-family="Helvetica,sans-Serif" font-size="8.00" fill="#555555">requirement</text>
<text text-anchor="start" x="659" y="-234.52" font-family="Helvetica,sans-Serif" font-size="9.00">[satisfied]</text>
</g>
<!-- g_p_sys&#45;&gt;p_mem -->
<g id="edge6" class="edge">
<title>g_p_sys&#45;&gt;p_mem</title>
<path fill="none" stroke="#e8590c" stroke-width="2.2" d="M408.16,-173.17C416.19,-176.47 424.76,-179.55 433,-181.72 502.63,-200.03 525.05,-178.99 594,-199.72 612,-205.13 630.7,-214.15 646.21,-222.69"/>
<polygon fill="#e8590c" stroke="#e8590c" stroke-width="2.2" points="644.52,-225.76 654.94,-227.64 647.97,-219.67 644.52,-225.76"/>
<text text-anchor="middle" x="640" y="-202.52" font-family="Helvetica,sans-Serif" font-size="9.00" fill="#e8590c">assumes</text>
</g>
<!-- p_rng_a -->
<g id="node9" class="node">
<title>p_rng_a</title>
<polygon fill="#b7e4c7" stroke="#495057" points="226.5,-263.72 159.5,-263.72 159.5,-227.72 226.5,-227.72 226.5,-263.72"/>
<text text-anchor="start" x="170" y="-251.92" font-family="Helvetica,sans-Serif" font-weight="bold" font-size="11.00">p_rng_a</text>
<text text-anchor="start" x="167.5" y="-243.32" font-family="Helvetica,sans-Serif" font-size="8.00" fill="#555555">requirement</text>
<text text-anchor="start" x="170" y="-234.52" font-family="Helvetica,sans-Serif" font-size="9.00">[satisfied]</text>
</g>
<!-- g_p_sys&#45;&gt;p_rng_a -->
<g id="edge7" class="edge">
<title>g_p_sys&#45;&gt;p_rng_a</title>
<path fill="none" stroke="#e8590c" stroke-width="2.2" d="M335.39,-172.87C327.47,-176.14 319.05,-179.3 311,-181.72 268.59,-194.48 247.79,-172.32 213,-199.72 207.22,-204.27 203.07,-210.84 200.1,-217.56"/>
<polygon fill="#e8590c" stroke="#e8590c" stroke-width="2.2" points="196.69,-216.7 196.55,-227.3 203.27,-219.1 196.69,-216.7"/>
<text text-anchor="middle" x="233" y="-202.52" font-family="Helvetica,sans-Serif" font-size="9.00" fill="#e8590c">assumes</text>
</g>
<!-- d_req_0&#45;&gt;d_sys -->
<g id="edge2" class="edge">
<title>d_req_0&#45;&gt;d_sys</title>
<path fill="none" stroke="#333333" stroke-width="1.4" d="M630.66,-261.26C633.45,-262.19 636.26,-263.02 639,-263.72 707.93,-281.22 727.36,-273.53 798,-281.72 919.3,-295.79 1062.36,-312.92 1133,-321.42"/>
<polygon fill="#333333" stroke="#333333" stroke-width="1.4" points="1132.94,-324.94 1143.29,-322.66 1133.78,-317.99 1132.94,-324.94"/>
<text text-anchor="middle" x="897.5" y="-284.52" font-family="Helvetica,sans-Serif" font-size="9.00" fill="#333333">refines</text>
</g>
<!-- p_entropy&#45;&gt;man_up -->
<g id="edge25" class="edge">
<title>p_entropy&#45;&gt;man_up</title>
<path fill="none" stroke="#adb5bd" stroke-dasharray="1,5" d="M507,-264.08C507,-274.42 507,-287.78 507,-299.5"/>
<polygon fill="#adb5bd" stroke="#adb5bd" points="503.5,-299.67 507,-309.67 510.5,-299.67 503.5,-299.67"/>
<text text-anchor="middle" x="543.5" y="-284.82" font-family="Helvetica,sans-Serif" font-size="8.00" fill="#868e96">referenced_under</text>
</g>
<!-- p_hal&#45;&gt;man_up -->
<g id="edge26" class="edge">
<title>p_hal&#45;&gt;man_up</title>
<path fill="none" stroke="#adb5bd" stroke-dasharray="1,5" d="M284.51,-264C283.19,-273.28 283.53,-284.3 290,-291.72 312.36,-317.39 408.93,-324.28 465.43,-326.1"/>
<polygon fill="#adb5bd" stroke="#adb5bd" points="465.39,-329.6 475.49,-326.38 465.59,-322.6 465.39,-329.6"/>
<text text-anchor="middle" x="326.5" y="-284.82" font-family="Helvetica,sans-Serif" font-size="8.00" fill="#868e96">referenced_under</text>
</g>
<!-- p_mem&#45;&gt;man_up -->
<g id="edge27" class="edge">
<title>p_mem&#45;&gt;man_up</title>
<path fill="none" stroke="#adb5bd" stroke-dasharray="1,5" d="M648.45,-262.16C629.53,-270.86 605.46,-281.92 584,-291.72 572.42,-297.01 559.85,-302.73 548.29,-307.99"/>
<polygon fill="#adb5bd" stroke="#adb5bd" points="546.51,-304.95 538.86,-312.27 549.41,-311.32 546.51,-304.95"/>
<text text-anchor="middle" x="642.5" y="-284.82" font-family="Helvetica,sans-Serif" font-size="8.00" fill="#868e96">referenced_under</text>
</g>
<!-- p_rng_a&#45;&gt;man_up -->
<g id="edge28" class="edge">
<title>p_rng_a&#45;&gt;man_up</title>
<path fill="none" stroke="#adb5bd" stroke-dasharray="1,5" d="M194.69,-263.81C196.58,-273.5 200.57,-285 209,-291.72 247.63,-322.52 392.6,-326.89 465.13,-327.09"/>
<polygon fill="#adb5bd" stroke="#adb5bd" points="465.29,-330.59 475.29,-327.09 465.29,-323.59 465.29,-330.59"/>
<text text-anchor="middle" x="245.5" y="-284.82" font-family="Helvetica,sans-Serif" font-size="8.00" fill="#868e96">referenced_under</text>
</g>
<!-- g_p_sys_2 -->
<g id="node10" class="node">
<title>g_p_sys_2</title>
<polygon fill="#cdb4db" stroke="#495057" points="1042.33,-146.1 1042.33,-163.34 1008.16,-175.52 959.84,-175.52 925.67,-163.34 925.67,-146.1 959.84,-133.92 1008.16,-133.92 1042.33,-146.1"/>
<polygon fill="none" stroke="#495057" points="1046.34,-143.26 1046.34,-166.18 1008.85,-179.55 959.15,-179.55 921.66,-166.18 921.66,-143.26 959.15,-129.89 1008.85,-129.89 1046.34,-143.26"/>
<text text-anchor="start" x="954" y="-156.42" font-family="Helvetica,sans-Serif" font-weight="bold" font-size="11.00">g_p_sys_2</text>
<text text-anchor="start" x="962.5" y="-147.82" font-family="Helvetica,sans-Serif" font-size="8.00" fill="#555555">guarantee</text>
</g>
<!-- g_p_sys_2&#45;&gt;man_up -->
<g id="edge29" class="edge">
<title>g_p_sys_2&#45;&gt;man_up</title>
<path fill="none" stroke="#adb5bd" stroke-dasharray="1,5" d="M973.85,-179.42C957.73,-216.52 927.08,-284.84 917,-291.72 887.08,-312.15 647.13,-322.18 548.8,-325.46"/>
<polygon fill="#adb5bd" stroke="#adb5bd" points="548.51,-321.97 538.63,-325.79 548.74,-328.97 548.51,-321.97"/>
<text text-anchor="middle" x="988.5" y="-243.82" font-family="Helvetica,sans-Serif" font-size="8.00" fill="#868e96">referenced_under</text>
</g>
<!-- g_p_sys_2&#45;&gt;p_mem -->
<g id="edge10" class="edge">
<title>g_p_sys_2&#45;&gt;p_mem</title>
<path fill="none" stroke="#e8590c" stroke-width="2.2" d="M940.89,-173.12C931.79,-176.33 922.16,-179.4 913,-181.72 859.01,-195.37 842.65,-184.81 789,-199.72 767.41,-205.72 744.38,-215 725.24,-223.58"/>
<polygon fill="#e8590c" stroke="#e8590c" stroke-width="2.2" points="723.54,-220.51 715.9,-227.85 726.45,-226.87 723.54,-220.51"/>
<text text-anchor="middle" x="809" y="-202.52" font-family="Helvetica,sans-Serif" font-size="9.00" fill="#e8590c">assumes</text>
</g>
<!-- d_req_1 -->
<g id="node11" class="node">
<title>d_req_1</title>
<polygon fill="#b7e4c7" stroke="#495057" points="1210.5,-263.72 1143.5,-263.72 1143.5,-227.72 1210.5,-227.72 1210.5,-263.72"/>
<text text-anchor="start" x="1154" y="-251.92" font-family="Helvetica,sans-Serif" font-weight="bold" font-size="11.00">d_req_1</text>
<text text-anchor="start" x="1151.5" y="-243.32" font-family="Helvetica,sans-Serif" font-size="8.00" fill="#555555">requirement</text>
<text text-anchor="start" x="1154" y="-234.52" font-family="Helvetica,sans-Serif" font-size="9.00">[satisfied]</text>
</g>
<!-- g_p_sys_2&#45;&gt;d_req_1 -->
<g id="edge9" class="edge">
<title>g_p_sys_2&#45;&gt;d_req_1</title>
<path fill="none" stroke="#9c36b5" stroke-width="2.2" d="M1027.59,-172.88C1036.57,-176.07 1046.03,-179.2 1055,-181.72 1094.27,-192.77 1110.77,-177.53 1145,-199.72 1152.35,-204.49 1158.54,-211.58 1163.44,-218.74"/>
<polygon fill="#9c36b5" stroke="#9c36b5" stroke-width="2.2" points="1160.73,-221.01 1168.98,-227.67 1166.69,-217.33 1160.73,-221.01"/>
<text text-anchor="middle" x="1172" y="-202.52" font-family="Helvetica,sans-Serif" font-size="9.00" fill="#9c36b5">covers</text>
</g>
<!-- p_sha256_a -->
<g id="node12" class="node">
<title>p_sha256_a</title>
<polygon fill="#b7e4c7" stroke="#495057" points="876,-263.72 790,-263.72 790,-227.72 876,-227.72 876,-263.72"/>
<text text-anchor="start" x="798" y="-251.92" font-family="Helvetica,sans-Serif" font-weight="bold" font-size="11.00">p_sha256_a</text>
<text text-anchor="start" x="807.5" y="-243.32" font-family="Helvetica,sans-Serif" font-size="8.00" fill="#555555">requirement</text>
<text text-anchor="start" x="810" y="-234.52" font-family="Helvetica,sans-Serif" font-size="9.00">[satisfied]</text>
</g>
<!-- g_p_sys_2&#45;&gt;p_sha256_a -->
<g id="edge11" class="edge">
<title>g_p_sys_2&#45;&gt;p_sha256_a</title>
<path fill="none" stroke="#e8590c" stroke-width="2.2" d="M941.32,-173.55C925.14,-180.91 906.83,-190 891,-199.72 880.67,-206.07 870.01,-213.91 860.69,-221.26"/>
<polygon fill="#e8590c" stroke="#e8590c" stroke-width="2.2" points="858.48,-218.55 852.88,-227.55 862.87,-224 858.48,-218.55"/>
<text text-anchor="middle" x="911" y="-202.52" font-family="Helvetica,sans-Serif" font-size="9.00" fill="#e8590c">assumes</text>
</g>
<!-- p_sha512_a -->
<g id="node13" class="node">
<title>p_sha512_a</title>
<polygon fill="#b7e4c7" stroke="#495057" points="1122,-263.72 1036,-263.72 1036,-227.72 1122,-227.72 1122,-263.72"/>
<text text-anchor="start" x="1044" y="-251.92" font-family="Helvetica,sans-Serif" font-weight="bold" font-size="11.00">p_sha512_a</text>
<text text-anchor="start" x="1053.5" y="-243.32" font-family="Helvetica,sans-Serif" font-size="8.00" fill="#555555">requirement</text>
<text text-anchor="start" x="1056" y="-234.52" font-family="Helvetica,sans-Serif" font-size="9.00">[satisfied]</text>
</g>
<!-- g_p_sys_2&#45;&gt;p_sha512_a -->
<g id="edge12" class="edge">
<title>g_p_sys_2&#45;&gt;p_sha512_a</title>
<path fill="none" stroke="#e8590c" stroke-width="2.2" d="M1009.46,-179.57C1022.97,-192.22 1039.53,-207.74 1053.1,-220.46"/>
<polygon fill="#e8590c" stroke="#e8590c" stroke-width="2.2" points="1051.01,-223.3 1060.7,-227.58 1055.8,-218.19 1051.01,-223.3"/>
<text text-anchor="middle" x="1061" y="-202.52" font-family="Helvetica,sans-Serif" font-size="9.00" fill="#e8590c">assumes</text>
</g>
<!-- d_req_1&#45;&gt;d_sys -->
<g id="edge8" class="edge">
<title>d_req_1&#45;&gt;d_sys</title>
<path fill="none" stroke="#333333" stroke-width="1.4" d="M1177,-264.08C1177,-274.42 1177,-287.78 1177,-299.5"/>
<polygon fill="#333333" stroke="#333333" stroke-width="1.4" points="1173.5,-299.67 1177,-309.67 1180.5,-299.67 1173.5,-299.67"/>
<text text-anchor="middle" x="1192.5" y="-284.52" font-family="Helvetica,sans-Serif" font-size="9.00" fill="#333333">refines</text>
</g>
<!-- p_sha256_a&#45;&gt;man_up -->
<g id="edge30" class="edge">
<title>p_sha256_a&#45;&gt;man_up</title>
<path fill="none" stroke="#adb5bd" stroke-dasharray="1,5" d="M789.98,-260.81C760.15,-270.29 719.41,-282.66 683,-291.72 637.46,-303.05 584.58,-313.17 548.76,-319.57"/>
<polygon fill="#adb5bd" stroke="#adb5bd" points="547.91,-316.17 538.68,-321.36 549.13,-323.06 547.91,-316.17"/>
<text text-anchor="middle" x="757.5" y="-284.82" font-family="Helvetica,sans-Serif" font-size="8.00" fill="#868e96">referenced_under</text>
</g>
<!-- p_sha512_a&#45;&gt;man_up -->
<g id="edge31" class="edge">
<title>p_sha512_a&#45;&gt;man_up</title>
<path fill="none" stroke="#adb5bd" stroke-dasharray="1,5" d="M1041.73,-263.81C1018.45,-273.69 987.57,-285.39 959,-291.72 810.81,-324.55 629.4,-327.78 548.9,-327.37"/>
<polygon fill="#adb5bd" stroke="#adb5bd" points="548.71,-323.87 538.68,-327.3 548.66,-330.87 548.71,-323.87"/>
<text text-anchor="middle" x="1029.5" y="-284.82" font-family="Helvetica,sans-Serif" font-size="8.00" fill="#868e96">referenced_under</text>
</g>
<!-- dr_0 -->
<g id="node14" class="node">
<title>dr_0</title>
<polygon fill="#caffbf" stroke="#495057" points="513,-181.72 442,-154.72 513,-127.72 584,-154.72 513,-181.72"/>
<text text-anchor="start" x="500" y="-156.42" font-family="Helvetica,sans-Serif" font-weight="bold" font-size="11.00">dr_0</text>
<text text-anchor="start" x="485.5" y="-147.82" font-family="Helvetica,sans-Serif" font-size="8.00" fill="#555555">designreview</text>
</g>
<!-- dr_0&#45;&gt;p_entropy -->
<g id="edge13" class="edge">
<title>dr_0&#45;&gt;p_entropy</title>
<path fill="none" stroke="#0c8599" stroke-width="1.2" d="M510.51,-180.83C509.96,-187 509.41,-193.6 509,-199.72 508.61,-205.47 508.28,-211.65 508.01,-217.52"/>
<polygon fill="#0c8599" stroke="#0c8599" stroke-width="1.2" points="504.5,-217.47 507.57,-227.61 511.5,-217.77 504.5,-217.47"/>
<text text-anchor="middle" x="526" y="-202.52" font-family="Helvetica,sans-Serif" font-size="9.00" fill="#0c8599">reviews</text>
</g>
<!-- dr_1 -->
<g id="node15" class="node">
<title>dr_1</title>
<polygon fill="#caffbf" stroke="#495057" points="231,-181.72 160,-154.72 231,-127.72 302,-154.72 231,-181.72"/>
<text text-anchor="start" x="218" y="-156.42" font-family="Helvetica,sans-Serif" font-weight="bold" font-size="11.00">dr_1</text>
<text text-anchor="start" x="203.5" y="-147.82" font-family="Helvetica,sans-Serif" font-size="8.00" fill="#555555">designreview</text>
</g>
<!-- dr_1&#45;&gt;p_hal -->
<g id="edge14" class="edge">
<title>dr_1&#45;&gt;p_hal</title>
<path fill="none" stroke="#0c8599" stroke-width="1.2" d="M242.57,-177.41C248.14,-187.44 255.09,-199.38 262,-209.72 264.13,-212.91 266.46,-216.18 268.82,-219.39"/>
<polygon fill="#0c8599" stroke="#0c8599" stroke-width="1.2" points="266.23,-221.77 275.06,-227.62 271.81,-217.53 266.23,-221.77"/>
<text text-anchor="middle" x="279" y="-202.52" font-family="Helvetica,sans-Serif" font-size="9.00" fill="#0c8599">reviews</text>
</g>
<!-- dr_2 -->
<g id="node16" class="node">
<title>dr_2</title>
<polygon fill="#caffbf" stroke="#495057" points="673,-181.72 602,-154.72 673,-127.72 744,-154.72 673,-181.72"/>
<text text-anchor="start" x="660" y="-156.42" font-family="Helvetica,sans-Serif" font-weight="bold" font-size="11.00">dr_2</text>
<text text-anchor="start" x="645.5" y="-147.82" font-family="Helvetica,sans-Serif" font-size="8.00" fill="#555555">designreview</text>
</g>
<!-- dr_2&#45;&gt;p_mem -->
<g id="edge15" class="edge">
<title>dr_2&#45;&gt;p_mem</title>
<path fill="none" stroke="#0c8599" stroke-width="1.2" d="M675.55,-180.99C676.71,-192.4 678.07,-205.9 679.25,-217.53"/>
<polygon fill="#0c8599" stroke="#0c8599" stroke-width="1.2" points="675.78,-217.97 680.27,-227.57 682.74,-217.27 675.78,-217.97"/>
<text text-anchor="middle" x="696" y="-202.52" font-family="Helvetica,sans-Serif" font-size="9.00" fill="#0c8599">reviews</text>
</g>
<!-- dr_3 -->
<g id="node17" class="node">
<title>dr_3</title>
<polygon fill="#caffbf" stroke="#495057" points="71,-181.72 0,-154.72 71,-127.72 142,-154.72 71,-181.72"/>
<text text-anchor="start" x="58" y="-156.42" font-family="Helvetica,sans-Serif" font-weight="bold" font-size="11.00">dr_3</text>
<text text-anchor="start" x="43.5" y="-147.82" font-family="Helvetica,sans-Serif" font-size="8.00" fill="#555555">designreview</text>
</g>
<!-- dr_3&#45;&gt;p_rng_a -->
<g id="edge16" class="edge">
<title>dr_3&#45;&gt;p_rng_a</title>
<path fill="none" stroke="#0c8599" stroke-width="1.2" d="M91.86,-173.94C104.58,-184.75 121.36,-198.5 137,-209.72 142.89,-213.95 149.29,-218.22 155.59,-222.26"/>
<polygon fill="#0c8599" stroke="#0c8599" stroke-width="1.2" points="153.73,-225.23 164.05,-227.6 157.46,-219.3 153.73,-225.23"/>
<text text-anchor="middle" x="154" y="-202.52" font-family="Helvetica,sans-Serif" font-size="9.00" fill="#0c8599">reviews</text>
</g>
<!-- dr_4 -->
<g id="node18" class="node">
<title>dr_4</title>
<polygon fill="#caffbf" stroke="#495057" points="833,-181.72 762,-154.72 833,-127.72 904,-154.72 833,-181.72"/>
<text text-anchor="start" x="820" y="-156.42" font-family="Helvetica,sans-Serif" font-weight="bold" font-size="11.00">dr_4</text>
<text text-anchor="start" x="805.5" y="-147.82" font-family="Helvetica,sans-Serif" font-size="8.00" fill="#555555">designreview</text>
</g>
<!-- dr_4&#45;&gt;p_sha256_a -->
<g id="edge17" class="edge">
<title>dr_4&#45;&gt;p_sha256_a</title>
<path fill="none" stroke="#0c8599" stroke-width="1.2" d="M833,-181.94C833,-193.13 833,-206.19 833,-217.49"/>
<polygon fill="#0c8599" stroke="#0c8599" stroke-width="1.2" points="829.5,-217.67 833,-227.67 836.5,-217.67 829.5,-217.67"/>
<text text-anchor="middle" x="850" y="-202.52" font-family="Helvetica,sans-Serif" font-size="9.00" fill="#0c8599">reviews</text>
</g>
<!-- dr_5 -->
<g id="node19" class="node">
<title>dr_5</title>
<polygon fill="#caffbf" stroke="#495057" points="1135,-181.72 1064,-154.72 1135,-127.72 1206,-154.72 1135,-181.72"/>
<text text-anchor="start" x="1122" y="-156.42" font-family="Helvetica,sans-Serif" font-weight="bold" font-size="11.00">dr_5</text>
<text text-anchor="start" x="1107.5" y="-147.82" font-family="Helvetica,sans-Serif" font-size="8.00" fill="#555555">designreview</text>
</g>
<!-- dr_5&#45;&gt;p_sha512_a -->
<g id="edge18" class="edge">
<title>dr_5&#45;&gt;p_sha512_a</title>
<path fill="none" stroke="#0c8599" stroke-width="1.2" d="M1121.73,-176.81C1113.79,-189.42 1103.65,-205.55 1095.24,-218.91"/>
<polygon fill="#0c8599" stroke="#0c8599" stroke-width="1.2" points="1092.1,-217.33 1089.74,-227.65 1098.03,-221.05 1092.1,-217.33"/>
<text text-anchor="middle" x="1124" y="-202.52" font-family="Helvetica,sans-Serif" font-size="9.00" fill="#0c8599">reviews</text>
</g>
<!-- d_own -->
<g id="node20" class="node">
<title>d_own</title>
<polygon fill="#b7e4c7" stroke="#495057" points="1298.5,-263.72 1231.5,-263.72 1231.5,-227.72 1298.5,-227.72 1298.5,-263.72"/>
<text text-anchor="start" x="1245.5" y="-251.92" font-family="Helvetica,sans-Serif" font-weight="bold" font-size="11.00">d_own</text>
<text text-anchor="start" x="1239.5" y="-243.32" font-family="Helvetica,sans-Serif" font-size="8.00" fill="#555555">requirement</text>
<text text-anchor="start" x="1242" y="-234.52" font-family="Helvetica,sans-Serif" font-size="9.00">[satisfied]</text>
</g>
<!-- d_own&#45;&gt;d_sys -->
<g id="edge19" class="edge">
<title>d_own&#45;&gt;d_sys</title>
<path fill="none" stroke="#333333" stroke-width="1.4" d="M1245.91,-264.08C1233.48,-275.37 1217.11,-290.26 1203.44,-302.68"/>
<polygon fill="#333333" stroke="#333333" stroke-width="1.4" points="1200.8,-300.35 1195.76,-309.67 1205.51,-305.53 1200.8,-300.35"/>
<text text-anchor="middle" x="1242.5" y="-284.52" font-family="Helvetica,sans-Serif" font-size="9.00" fill="#333333">refines</text>
</g>
<!-- d_ts -->
<g id="node21" class="node">
<title>d_ts</title>
<ellipse fill="#d0e6fb" stroke="#495057" cx="1384" cy="-154.72" rx="60.21" ry="19.18"/>
<text text-anchor="start" x="1371.5" y="-156.42" font-family="Helvetica,sans-Serif" font-weight="bold" font-size="11.00">d_ts</text>
<text text-anchor="start" x="1349.5" y="-147.82" font-family="Helvetica,sans-Serif" font-size="8.00" fill="#555555">testspecification</text>
</g>
<!-- d_ts&#45;&gt;d_own -->
<g id="edge20" class="edge">
<title>d_ts&#45;&gt;d_own</title>
<path fill="none" stroke="#1d6fb8" stroke-width="1.2" d="M1366.05,-173.18C1354.27,-184.23 1338.27,-198.5 1323,-209.72 1317.14,-214.03 1310.72,-218.3 1304.36,-222.3"/>
<polygon fill="#1d6fb8" stroke="#1d6fb8" stroke-width="1.2" points="1302.47,-219.35 1295.78,-227.56 1306.13,-225.32 1302.47,-219.35"/>
<text text-anchor="middle" x="1352.5" y="-202.52" font-family="Helvetica,sans-Serif" font-size="9.00" fill="#1d6fb8">verifies</text>
</g>
<!-- d_im2 -->
<g id="node22" class="node">
<title>d_im2</title>
<polygon fill="#e6dcf5" stroke="#495057" points="1305.5,-172.72 1224.5,-172.72 1224.5,-168.72 1220.5,-168.72 1220.5,-164.72 1224.5,-164.72 1224.5,-144.72 1220.5,-144.72 1220.5,-140.72 1224.5,-140.72 1224.5,-136.72 1305.5,-136.72 1305.5,-172.72"/>
<polyline fill="none" stroke="#495057" points="1224.5,-168.72 1228.5,-168.72 1228.5,-164.72 1224.5,-164.72 "/>
<polyline fill="none" stroke="#495057" points="1224.5,-144.72 1228.5,-144.72 1228.5,-140.72 1224.5,-140.72 "/>
<text text-anchor="start" x="1247" y="-156.42" font-family="Helvetica,sans-Serif" font-weight="bold" font-size="11.00">d_im2</text>
<text text-anchor="start" x="1232.5" y="-147.82" font-family="Helvetica,sans-Serif" font-size="8.00" fill="#555555">implementation</text>
</g>
<!-- d_im2&#45;&gt;d_own -->
<g id="edge21" class="edge">
<title>d_im2&#45;&gt;d_own</title>
<path fill="none" stroke="#7048e8" stroke-width="1.2" d="M1265,-172.88C1265,-185.44 1265,-202.74 1265,-217.22"/>
<polygon fill="#7048e8" stroke="#7048e8" stroke-width="1.2" points="1261.5,-217.61 1265,-227.61 1268.5,-217.61 1261.5,-217.61"/>
<text text-anchor="middle" x="1292" y="-202.52" font-family="Helvetica,sans-Serif" font-size="9.00" fill="#7048e8">implements</text>
</g>
<!-- d_to -->
<g id="node23" class="node">
<title>d_to</title>
<polygon fill="#b7e4c7" stroke="#495057" points="1352,-81.72 1290,-81.72 1290,-45.72 1358,-45.72 1358,-75.72 1352,-81.72"/>
<polyline fill="none" stroke="#495057" points="1352,-81.72 1352,-75.72 "/>
<polyline fill="none" stroke="#495057" points="1358,-75.72 1352,-75.72 "/>
<text text-anchor="start" x="1311" y="-69.92" font-family="Helvetica,sans-Serif" font-weight="bold" font-size="11.00">d_to</text>
<text text-anchor="start" x="1298" y="-61.32" font-family="Helvetica,sans-Serif" font-size="8.00" fill="#555555">testoutcome</text>
<text text-anchor="start" x="1312.5" y="-52.52" font-family="Helvetica,sans-Serif" font-size="9.00">PASS</text>
</g>
<!-- d_to&#45;&gt;d_ts -->
<g id="edge22" class="edge">
<title>d_to&#45;&gt;d_ts</title>
<path fill="none" stroke="#2f9e44" stroke-width="1.2" d="M1335.76,-81.78C1339.67,-87.47 1344.04,-93.86 1348,-99.72 1354.06,-108.68 1360.64,-118.51 1366.49,-127.31"/>
<polygon fill="#2f9e44" stroke="#2f9e44" stroke-width="1.2" points="1363.61,-129.29 1372.06,-135.68 1369.44,-125.42 1363.61,-129.29"/>
<text text-anchor="middle" x="1374" y="-102.52" font-family="Helvetica,sans-Serif" font-size="9.00" fill="#2f9e44">confirms</text>
</g>
<!-- d_to&#45;&gt;d_im2 -->
<g id="edge23" class="edge">
<title>d_to&#45;&gt;d_im2</title>
<path fill="none" stroke="#2f9e44" stroke-width="1.2" stroke-dasharray="5,2" d="M1312.62,-81.88C1303.97,-94.93 1291.92,-113.1 1282.11,-127.91"/>
<polygon fill="#2f9e44" stroke="#2f9e44" stroke-width="1.2" points="1278.95,-126.34 1276.34,-136.61 1284.78,-130.21 1278.95,-126.34"/>
<text text-anchor="middle" x="1322" y="-102.52" font-family="Helvetica,sans-Serif" font-size="9.00" fill="#2f9e44">witnesses</text>
</g>
<!-- L_req_sat -->
<g id="node24" class="node">
<title>L_req_sat</title>
<polygon fill="#b7e4c7" stroke="black" points="1558.5,-81.72 1485.5,-81.72 1485.5,-45.72 1558.5,-45.72 1558.5,-81.72"/>
<text text-anchor="middle" x="1522" y="-66.52" font-family="Helvetica,sans-Serif" font-size="9.00">requirement</text>
<text text-anchor="middle" x="1522" y="-56.52" font-family="Helvetica,sans-Serif" font-size="9.00">(satisfied)</text>
</g>
<!-- L_req_obl -->
<g id="node25" class="node">
<title>L_req_obl</title>
<polygon fill="#ffe08a" stroke="black" points="1558.5,-172.72 1485.5,-172.72 1485.5,-136.72 1558.5,-136.72 1558.5,-172.72"/>
<text text-anchor="middle" x="1522" y="-157.52" font-family="Helvetica,sans-Serif" font-size="9.00">requirement</text>
<text text-anchor="middle" x="1522" y="-147.52" font-family="Helvetica,sans-Serif" font-size="9.00">(obligation)</text>
</g>
<!-- L_req_sat&#45;&gt;L_req_obl -->
<!-- L_req_uns -->
<g id="node26" class="node">
<title>L_req_uns</title>
<polygon fill="#f4a3a3" stroke="black" points="1559,-263.72 1485,-263.72 1485,-227.72 1559,-227.72 1559,-263.72"/>
<text text-anchor="middle" x="1522" y="-248.52" font-family="Helvetica,sans-Serif" font-size="9.00">requirement</text>
<text text-anchor="middle" x="1522" y="-238.52" font-family="Helvetica,sans-Serif" font-size="9.00">(unsatisfied)</text>
</g>
<!-- L_req_obl&#45;&gt;L_req_uns -->
<!-- L_ts -->
<g id="node27" class="node">
<title>L_ts</title>
<ellipse fill="#d0e6fb" stroke="black" cx="1522" cy="-327.72" rx="52.58" ry="18"/>
<text text-anchor="middle" x="1522" y="-325.52" font-family="Helvetica,sans-Serif" font-size="9.00">testspecification</text>
</g>
<!-- L_req_uns&#45;&gt;L_ts -->
<!-- L_impl -->
<g id="node28" class="node">
<title>L_impl</title>
<polygon fill="#e6dcf5" stroke="black" points="1566,-418.72 1478,-418.72 1478,-414.72 1474,-414.72 1474,-410.72 1478,-410.72 1478,-390.72 1474,-390.72 1474,-386.72 1478,-386.72 1478,-382.72 1566,-382.72 1566,-418.72"/>
<polyline fill="none" stroke="black" points="1478,-414.72 1482,-414.72 1482,-410.72 1478,-410.72 "/>
<polyline fill="none" stroke="black" points="1478,-390.72 1482,-390.72 1482,-386.72 1478,-386.72 "/>
<text text-anchor="middle" x="1522" y="-398.52" font-family="Helvetica,sans-Serif" font-size="9.00">implementation</text>
</g>
<!-- L_ts&#45;&gt;L_impl -->
<!-- L_out -->
<g id="node29" class="node">
<title>L_out</title>
<polygon fill="#b7e4c7" stroke="black" points="1553,-500.72 1485,-500.72 1485,-464.72 1559,-464.72 1559,-494.72 1553,-500.72"/>
<polyline fill="none" stroke="black" points="1553,-500.72 1553,-494.72 "/>
<polyline fill="none" stroke="black" points="1559,-494.72 1553,-494.72 "/>
<text text-anchor="middle" x="1522" y="-480.52" font-family="Helvetica,sans-Serif" font-size="9.00">testoutcome</text>
</g>
<!-- L_impl&#45;&gt;L_out -->
<!-- L_guar -->
<g id="node30" class="node">
<title>L_guar</title>
<polygon fill="#cdb4db" stroke="black" points="1561.25,-552.26 1561.25,-567.18 1538.26,-577.72 1505.74,-577.72 1482.75,-567.18 1482.75,-552.26 1505.74,-541.72 1538.26,-541.72 1561.25,-552.26"/>
<polygon fill="none" stroke="black" points="1565.24,-549.69 1565.24,-569.75 1539.13,-581.72 1504.87,-581.72 1478.76,-569.75 1478.76,-549.69 1504.87,-537.72 1539.13,-537.72 1565.24,-549.69"/>
<text text-anchor="middle" x="1522" y="-557.52" font-family="Helvetica,sans-Serif" font-size="9.00">guarantee</text>
</g>
<!-- L_out&#45;&gt;L_guar -->
<!-- L_man -->
<g id="node31" class="node">
<title>L_man</title>
<polygon fill="#ffd6a5" stroke="black" points="1550,-663.72 1547,-667.72 1526,-667.72 1523,-663.72 1494,-663.72 1494,-627.72 1550,-627.72 1550,-663.72"/>
<text text-anchor="middle" x="1522" y="-643.52" font-family="Helvetica,sans-Serif" font-size="9.00">manifest</text>
</g>
<!-- L_guar&#45;&gt;L_man -->
<!-- L_dr -->
<g id="node32" class="node">
<title>L_dr</title>
<polygon fill="#caffbf" stroke="black" points="1522,-736.72 1459.89,-718.72 1522,-700.72 1584.11,-718.72 1522,-736.72"/>
<text text-anchor="middle" x="1522" y="-716.52" font-family="Helvetica,sans-Serif" font-size="9.00">designreview</text>
</g>
<!-- L_man&#45;&gt;L_dr -->
<!-- L_env -->
<g id="node33" class="node">
<title>L_env</title>
<polygon fill="#c3fae8" stroke="black" points="1559,-818.72 1489,-818.72 1485,-814.72 1485,-782.72 1555,-782.72 1559,-786.72 1559,-818.72"/>
<polyline fill="none" stroke="black" points="1555,-814.72 1485,-814.72 "/>
<polyline fill="none" stroke="black" points="1555,-814.72 1555,-782.72 "/>
<polyline fill="none" stroke="black" points="1555,-814.72 1559,-818.72 "/>
<text text-anchor="middle" x="1522" y="-798.52" font-family="Helvetica,sans-Serif" font-size="9.00">environment</text>
</g>
<!-- L_dr&#45;&gt;L_env -->
<!-- L_asm -->
<g id="node34" class="node">
<title>L_asm</title>
<polygon fill="#fff3bf" stroke="black" points="1550.5,-891.72 1487.5,-891.72 1487.5,-855.72 1556.5,-855.72 1556.5,-885.72 1550.5,-891.72"/>
<polyline fill="none" stroke="black" points="1550.5,-891.72 1550.5,-885.72 "/>
<polyline fill="none" stroke="black" points="1556.5,-885.72 1550.5,-885.72 "/>
<text text-anchor="middle" x="1522" y="-876.52" font-family="Helvetica,sans-Serif" font-size="9.00">assumption</text>
<text text-anchor="middle" x="1522" y="-866.52" font-family="Helvetica,sans-Serif" font-size="9.00">(imported)</text>
</g>
<!-- L_env&#45;&gt;L_asm -->
<!-- E0a -->
<g id="node35" class="node">
<title>E0a</title>
<ellipse fill="#888888" stroke="#888888" cx="1618" cy="-63.72" rx="0.72" ry="0.72"/>
</g>
<!-- E0b -->
<g id="node36" class="node">
<title>E0b</title>
<ellipse fill="#888888" stroke="#888888" cx="1618" cy="-154.72" rx="0.72" ry="0.72"/>
</g>
<!-- E0a&#45;&gt;E0b -->
<g id="edge42" class="edge">
<title>E0a&#45;&gt;E0b</title>
<path fill="none" stroke="#333333" stroke-width="1.4" d="M1618,-64.78C1618,-66.9 1618,-120.42 1618,-143.4"/>
<polygon fill="#333333" stroke="#333333" stroke-width="1.4" points="1614.5,-143.66 1618,-153.66 1621.5,-143.66 1614.5,-143.66"/>
<text text-anchor="middle" x="1633.5" y="-102.52" font-family="Helvetica,sans-Serif" font-size="9.00" fill="#333333">refines</text>
</g>
<!-- E1a -->
<g id="node37" class="node">
<title>E1a</title>
<ellipse fill="#888888" stroke="#888888" cx="1618" cy="-245.72" rx="0.72" ry="0.72"/>
</g>
<!-- E0b&#45;&gt;E1a -->
<!-- E1b -->
<g id="node38" class="node">
<title>E1b</title>
<ellipse fill="#888888" stroke="#888888" cx="1618" cy="-327.72" rx="0.72" ry="0.72"/>
</g>
<!-- E1a&#45;&gt;E1b -->
<g id="edge43" class="edge">
<title>E1a&#45;&gt;E1b</title>
<path fill="none" stroke="#1d6fb8" stroke-width="1.2" d="M1618,-246.78C1618,-248.65 1618,-295.38 1618,-316.51"/>
<polygon fill="#1d6fb8" stroke="#1d6fb8" stroke-width="1.2" points="1614.5,-316.66 1618,-326.66 1621.5,-316.66 1614.5,-316.66"/>
<text text-anchor="middle" x="1634.5" y="-284.52" font-family="Helvetica,sans-Serif" font-size="9.00" fill="#1d6fb8">verifies</text>
</g>
<!-- E2a -->
<g id="node39" class="node">
<title>E2a</title>
<ellipse fill="#888888" stroke="#888888" cx="1618" cy="-400.72" rx="0.72" ry="0.72"/>
</g>
<!-- E1b&#45;&gt;E2a -->
<!-- E2b -->
<g id="node40" class="node">
<title>E2b</title>
<ellipse fill="#888888" stroke="#888888" cx="1618" cy="-482.72" rx="0.72" ry="0.72"/>
</g>
<!-- E2a&#45;&gt;E2b -->
<g id="edge45" class="edge">
<title>E2a&#45;&gt;E2b</title>
<path fill="none" stroke="#7048e8" stroke-width="1.2" d="M1618,-401.78C1618,-403.65 1618,-450.38 1618,-471.51"/>
<polygon fill="#7048e8" stroke="#7048e8" stroke-width="1.2" points="1614.5,-471.66 1618,-481.66 1621.5,-471.66 1614.5,-471.66"/>
<text text-anchor="middle" x="1645" y="-439.52" font-family="Helvetica,sans-Serif" font-size="9.00" fill="#7048e8">implements</text>
</g>
<!-- E3a -->
<g id="node41" class="node">
<title>E3a</title>
<ellipse fill="#888888" stroke="#888888" cx="1618" cy="-559.72" rx="0.72" ry="0.72"/>
</g>
<!-- E2b&#45;&gt;E3a -->
<!-- E3b -->
<g id="node42" class="node">
<title>E3b</title>
<ellipse fill="#888888" stroke="#888888" cx="1618" cy="-645.72" rx="0.72" ry="0.72"/>
</g>
<!-- E3a&#45;&gt;E3b -->
<g id="edge47" class="edge">
<title>E3a&#45;&gt;E3b</title>
<path fill="none" stroke="#2f9e44" stroke-width="1.2" d="M1618,-560.78C1618,-562.77 1618,-612.8 1618,-634.66"/>
<polygon fill="#2f9e44" stroke="#2f9e44" stroke-width="1.2" points="1614.5,-634.66 1618,-644.66 1621.5,-634.66 1614.5,-634.66"/>
<text text-anchor="middle" x="1638" y="-602.52" font-family="Helvetica,sans-Serif" font-size="9.00" fill="#2f9e44">confirms</text>
</g>
<!-- E4a -->
<g id="node43" class="node">
<title>E4a</title>
<ellipse fill="#888888" stroke="#888888" cx="1618" cy="-718.72" rx="0.72" ry="0.72"/>
</g>
<!-- E3b&#45;&gt;E4a -->
<!-- E4b -->
<g id="node44" class="node">
<title>E4b</title>
<ellipse fill="#888888" stroke="#888888" cx="1618" cy="-800.72" rx="0.72" ry="0.72"/>
</g>
<!-- E4a&#45;&gt;E4b -->
<g id="edge49" class="edge">
<title>E4a&#45;&gt;E4b</title>
<path fill="none" stroke="#2f9e44" stroke-width="1.2" stroke-dasharray="5,2" d="M1618,-719.78C1618,-721.65 1618,-768.38 1618,-789.51"/>
<polygon fill="#2f9e44" stroke="#2f9e44" stroke-width="1.2" points="1614.5,-789.66 1618,-799.66 1621.5,-789.66 1614.5,-789.66"/>
<text text-anchor="middle" x="1640" y="-757.52" font-family="Helvetica,sans-Serif" font-size="9.00" fill="#2f9e44">witnesses</text>
</g>
<!-- E5a -->
<g id="node45" class="node">
<title>E5a</title>
<ellipse fill="#888888" stroke="#888888" cx="1618" cy="-873.72" rx="0.72" ry="0.72"/>
</g>
<!-- E4b&#45;&gt;E5a -->
<!-- E5b -->
<g id="node46" class="node">
<title>E5b</title>
<ellipse fill="#888888" stroke="#888888" cx="1618" cy="-938.44" rx="0.72" ry="0.72"/>
</g>
<!-- E5a&#45;&gt;E5b -->
<g id="edge51" class="edge">
<title>E5a&#45;&gt;E5b</title>
<path fill="none" stroke="#e8590c" stroke-width="2.2" d="M1618,-874.77C1618,-876.18 1618,-910.17 1618,-927.6"/>
<polygon fill="#e8590c" stroke="#e8590c" stroke-width="2.2" points="1614.5,-927.68 1618,-937.68 1621.5,-927.68 1614.5,-927.68"/>
<text text-anchor="middle" x="1638" y="-912.52" font-family="Helvetica,sans-Serif" font-size="9.00" fill="#e8590c">assumes</text>
</g>
<!-- E6a -->
<g id="node47" class="node">
<title>E6a</title>
<ellipse fill="#888888" stroke="#888888" cx="1618" cy="-976.88" rx="0.72" ry="0.72"/>
</g>
<!-- E5b&#45;&gt;E6a -->
<!-- E6b -->
<g id="node48" class="node">
<title>E6b</title>
<ellipse fill="#888888" stroke="#888888" cx="1618" cy="-1024.32" rx="0.72" ry="0.72"/>
</g>
<!-- E6a&#45;&gt;E6b -->
<g id="edge53" class="edge">
<title>E6a&#45;&gt;E6b</title>
<path fill="none" stroke="#9c36b5" stroke-width="2.2" d="M1618,-977.73C1618,-979.57 1618,-1000.19 1618,-1013.14"/>
<polygon fill="#9c36b5" stroke="#9c36b5" stroke-width="2.2" points="1614.5,-1013.48 1618,-1023.48 1621.5,-1013.48 1614.5,-1013.48"/>
<text text-anchor="middle" x="1633" y="-998.4" font-family="Helvetica,sans-Serif" font-size="9.00" fill="#9c36b5">covers</text>
</g>
<!-- E7a -->
<g id="node49" class="node">
<title>E7a</title>
<ellipse fill="#888888" stroke="#888888" cx="1618" cy="-1062.76" rx="0.72" ry="0.72"/>
</g>
<!-- E6b&#45;&gt;E7a -->
<!-- E7b -->
<g id="node50" class="node">
<title>E7b</title>
<ellipse fill="#888888" stroke="#888888" cx="1618" cy="-1110.2" rx="0.72" ry="0.72"/>
</g>
<!-- E7a&#45;&gt;E7b -->
<g id="edge55" class="edge">
<title>E7a&#45;&gt;E7b</title>
<path fill="none" stroke="#9c36b5" stroke-width="1.8" stroke-dasharray="5,2" d="M1618,-1063.61C1618,-1065.45 1618,-1086.07 1618,-1099.02"/>
<polygon fill="#9c36b5" stroke="#9c36b5" stroke-width="1.8" points="1614.5,-1099.36 1618,-1109.36 1621.5,-1099.36 1614.5,-1099.36"/>
<text text-anchor="middle" x="1644" y="-1084.28" font-family="Helvetica,sans-Serif" font-size="9.00" fill="#9c36b5">conformsTo</text>
</g>
<!-- E8a -->
<g id="node51" class="node">
<title>E8a</title>
<ellipse fill="#888888" stroke="#888888" cx="1618" cy="-1148.64" rx="0.72" ry="0.72"/>
</g>
<!-- E7b&#45;&gt;E8a -->
<!-- E8b -->
<g id="node52" class="node">
<title>E8b</title>
<ellipse fill="#888888" stroke="#888888" cx="1618" cy="-1196.08" rx="0.72" ry="0.72"/>
</g>
<!-- E8a&#45;&gt;E8b -->
<g id="edge57" class="edge">
<title>E8a&#45;&gt;E8b</title>
<path fill="none" stroke="#0c8599" stroke-width="1.2" d="M1618,-1149.49C1618,-1151.33 1618,-1171.95 1618,-1184.9"/>
<polygon fill="#0c8599" stroke="#0c8599" stroke-width="1.2" points="1614.5,-1185.24 1618,-1195.24 1621.5,-1185.24 1614.5,-1185.24"/>
<text text-anchor="middle" x="1635" y="-1170.16" font-family="Helvetica,sans-Serif" font-size="9.00" fill="#0c8599">reviews</text>
</g>
<!-- E9a -->
<g id="node53" class="node">
<title>E9a</title>
<ellipse fill="#888888" stroke="#888888" cx="1618" cy="-1234.52" rx="0.72" ry="0.72"/>
</g>
<!-- E8b&#45;&gt;E9a -->
<!-- E9b -->
<g id="node54" class="node">
<title>E9b</title>
<ellipse fill="#888888" stroke="#888888" cx="1618" cy="-1281.96" rx="0.72" ry="0.72"/>
</g>
<!-- E9a&#45;&gt;E9b -->
<g id="edge59" class="edge">
<title>E9a&#45;&gt;E9b</title>
<path fill="none" stroke="#868e96" stroke-dasharray="5,2" d="M1618,-1235.37C1618,-1237.21 1618,-1257.83 1618,-1270.78"/>
<polygon fill="#868e96" stroke="#868e96" points="1614.5,-1271.12 1618,-1281.12 1621.5,-1271.12 1614.5,-1271.12"/>
<text text-anchor="middle" x="1628.5" y="-1256.04" font-family="Helvetica,sans-Serif" font-size="9.00" fill="#868e96">uses</text>
</g>
<!-- E10a -->
<g id="node55" class="node">
<title>E10a</title>
<ellipse fill="#888888" stroke="#888888" cx="1618" cy="-1320.4" rx="0.72" ry="0.72"/>
</g>
<!-- E9b&#45;&gt;E10a -->
<!-- E10b -->
<g id="node56" class="node">
<title>E10b</title>
<ellipse fill="#888888" stroke="#888888" cx="1618" cy="-1367.84" rx="0.72" ry="0.72"/>
</g>
<!-- E10a&#45;&gt;E10b -->
<g id="edge61" class="edge">
<title>E10a&#45;&gt;E10b</title>
<path fill="none" stroke="#e03131" stroke-width="1.2" stroke-dasharray="1,5" d="M1618,-1321.25C1618,-1323.09 1618,-1343.71 1618,-1356.66"/>
<polygon fill="#e03131" stroke="#e03131" stroke-width="1.2" points="1614.5,-1357 1618,-1367 1621.5,-1357 1614.5,-1357"/>
<text text-anchor="middle" x="1636.5" y="-1341.92" font-family="Helvetica,sans-Serif" font-size="9.00" fill="#e03131">excuses</text>
</g>
<!-- E11a -->
<g id="node57" class="node">
<title>E11a</title>
<ellipse fill="#888888" stroke="#888888" cx="1618" cy="-1406.28" rx="0.72" ry="0.72"/>
</g>
<!-- E10b&#45;&gt;E11a -->
<!-- E11b -->
<g id="node58" class="node">
<title>E11b</title>
<ellipse fill="#888888" stroke="#888888" cx="1618" cy="-1453.72" rx="0.72" ry="0.72"/>
</g>
<!-- E11a&#45;&gt;E11b -->
<g id="edge63" class="edge">
<title>E11a&#45;&gt;E11b</title>
<path fill="none" stroke="#0ca678" stroke-width="1.6" stroke-dasharray="5,2" d="M1618,-1407.13C1618,-1408.97 1618,-1429.59 1618,-1442.54"/>
<polygon fill="#0ca678" stroke="#0ca678" stroke-width="1.6" points="1614.5,-1442.88 1618,-1452.88 1621.5,-1442.88 1614.5,-1442.88"/>
<text text-anchor="middle" x="1648.5" y="-1427.8" font-family="Helvetica,sans-Serif" font-size="9.00" fill="#0ca678">surrogate_for</text>
</g>
<!-- E12a -->
<g id="node59" class="node">
<title>E12a</title>
<ellipse fill="#888888" stroke="#888888" cx="1618" cy="-1492.16" rx="0.72" ry="0.72"/>
</g>
<!-- E11b&#45;&gt;E12a -->
<!-- E12b -->
<g id="node60" class="node">
<title>E12b</title>
<ellipse fill="#888888" stroke="#888888" cx="1618" cy="-1539.6" rx="0.72" ry="0.72"/>
</g>
<!-- E12a&#45;&gt;E12b -->
<g id="edge65" class="edge">
<title>E12a&#45;&gt;E12b</title>
<path fill="none" stroke="#495057" stroke-width="1.2" stroke-dasharray="1,5" d="M1618,-1493.01C1618,-1494.85 1618,-1515.47 1618,-1528.42"/>
<polygon fill="#495057" stroke="#495057" stroke-width="1.2" points="1614.5,-1528.76 1618,-1538.76 1621.5,-1528.76 1614.5,-1528.76"/>
<text text-anchor="middle" x="1633.5" y="-1513.68" font-family="Helvetica,sans-Serif" font-size="9.00" fill="#495057">ran_on</text>
</g>
</g>
</svg>
